<?xml version="1.0" encoding="utf-8"?>
<!-- Generator: Adobe Illustrator 16.0.0, SVG Export Plug-In . SVG Version: 6.00 Build 0)  -->
<!DOCTYPE svg PUBLIC "-//W3C//DTD SVG 1.1//EN" "http://www.w3.org/Graphics/SVG/1.1/DTD/svg11.dtd">
<svg version="1.1" id="Layer_1" xmlns="http://www.w3.org/2000/svg" xmlns:xlink="http://www.w3.org/1999/xlink" x="0px" y="0px"
	 width="200px" height="85px" viewBox="50 -47.5 200 85" enable-background="new 50 -47.5 200 85" xml:space="preserve">
<g>
	<g>
		<g>
			<path fill="#FFFFFF" d="M156.121,4.629L156.121,4.629c-0.015-0.002-0.04-0.008-0.07-0.015c-0.063,0-0.121-0.008-0.18-0.007
				c-1.775,0.018-3.373,0.761-4.516,1.944c0.12,0.774,0.376,1.503,0.749,2.158c0.044-0.066,0.09-0.128,0.136-0.19
				c0.059-0.084,0.117-0.169,0.179-0.252c0.128-0.171,0.257-0.339,0.385-0.5c0.073-0.092,0.147-0.18,0.223-0.268
				c0.075-0.091,0.151-0.179,0.226-0.266c0.099-0.11,0.193-0.217,0.289-0.321c0.1-0.106,0.199-0.213,0.297-0.313
				c0.083-0.087,0.166-0.168,0.247-0.247c0.06-0.06,0.117-0.114,0.175-0.171c0.135-0.129,0.265-0.25,0.392-0.364
				c0.05-0.044,0.101-0.092,0.149-0.134c0.076-0.066,0.148-0.128,0.219-0.188c0.049-0.043,0.096-0.08,0.141-0.119
				c0.104-0.085,0.197-0.162,0.287-0.235c0.047-0.037,0.096-0.073,0.137-0.106c0.049-0.038,0.092-0.071,0.136-0.104
				c0.048-0.036,0.09-0.065,0.129-0.096c0.043-0.032,0.078-0.058,0.112-0.082c0.041-0.028,0.071-0.051,0.1-0.069
				c0.021-0.016,0.031-0.021,0.042-0.03c0.022-0.015,0.036-0.024,0.036-0.024C156.143,4.632,156.136,4.631,156.121,4.629z"/>
			<g>
				<path fill="#FFFFFF" d="M155.076-12.571c0.115-0.268,0.244-0.531,0.405-0.783c0.092-0.261,0.194-0.506,0.304-0.744
					c-0.816-1.577-1.844-3.035-3.05-4.33c0.005-0.003,0.011-0.006,0.015-0.009c-0.091-0.097-0.184-0.188-0.273-0.282
					c-0.074-0.078-0.151-0.157-0.229-0.235c-3.263-3.299-7.059-5.688-9.19-12.49c-0.179-0.669-0.588-0.783-0.588-0.783
					c-0.37,0.173-1.098,0.446-1.098,0.446c-0.912,0.591-1.744,1.294-2.493,2.081c-0.912,0.915-1.674,1.979-2.268,3.147
					c3.56,3.731,7.274,4.965,10.815,6.909c0.104,0.056,0.206,0.115,0.308,0.173c0.125,0.069,0.248,0.137,0.372,0.209
					c-0.004,0.003-0.008,0.008-0.012,0.013c3.022,1.782,5.591,4.308,7.417,7.38C155.369-12.106,155.227-12.342,155.076-12.571z"/>
				<path fill="#FFFFFF" d="M157.944-5.716c0-0.004-0.001-0.008-0.001-0.013c-0.49-2.202-1.313-4.25-2.407-6.099
					C156.631-9.974,157.453-7.924,157.944-5.716z"/>
			</g>
			<path fill="#FFFFFF" d="M148.093-19.25c0.003-0.004,0.007-0.01,0.011-0.013c-0.124-0.072-0.247-0.14-0.372-0.209
				c-0.103-0.058-0.205-0.117-0.309-0.173c-4.404-2.419-9.081-3.729-13.389-10.132c-0.393-0.64-0.854-0.632-0.854-0.632
				c-0.33,0.294-1.001,0.802-1.001,0.802c-0.765,0.894-1.411,1.881-1.946,2.928c-0.402,0.743-0.708,1.534-0.966,2.342
				c0.184,0.374,0.414,0.814,0.691,1.313c0.224,0.356,0.44,0.765,0.717,1.161c0.265,0.406,0.553,0.83,0.879,1.245
				c0.308,0.435,0.675,0.837,1.037,1.262c0.368,0.418,0.781,0.802,1.184,1.201c0.44,0.349,0.849,0.755,1.316,1.059
				c0.465,0.304,0.903,0.65,1.389,0.87c0.472,0.248,0.926,0.503,1.397,0.646c0.464,0.16,0.894,0.361,1.322,0.423
				c0.424,0.091,0.813,0.175,1.158,0.249c0.353,0.023,0.661,0.043,0.914,0.06c0.511,0.033,0.804,0.052,0.804,0.052
				s-0.292,0.016-0.804,0.042c-0.258,0.013-0.571,0.028-0.929,0.047c-0.359-0.034-0.764-0.073-1.206-0.114
				c-0.451-0.015-0.911-0.165-1.413-0.276c-0.51-0.095-1.01-0.301-1.537-0.504c-0.541-0.176-1.038-0.479-1.571-0.746
				s-1.009-0.638-1.524-0.958c-0.474-0.37-0.964-0.731-1.406-1.129c-0.436-0.403-0.881-0.791-1.26-1.212
				c-0.402-0.403-0.76-0.817-1.094-1.218c-0.238-0.269-0.441-0.538-0.639-0.799c-0.076,0.724-0.112,1.456-0.068,2.199
				c0.024,0.76,0.085,1.525,0.232,2.296c0.137,0.73,0.334,1.434,0.571,2.115c0.075,0.066,0.149,0.13,0.23,0.198
				c0.295,0.227,0.601,0.499,0.954,0.742c0.346,0.255,0.716,0.518,1.117,0.761c0.391,0.265,0.82,0.484,1.252,0.725
				c0.436,0.234,0.897,0.423,1.356,0.632c0.473,0.151,0.94,0.362,1.421,0.469c0.48,0.109,0.953,0.26,1.425,0.292
				c0.469,0.06,0.926,0.13,1.362,0.103c0.436-0.011,0.857,0.022,1.232-0.06c0.383-0.056,0.732-0.107,1.042-0.154
				c0.3-0.091,0.563-0.17,0.779-0.234c0.437-0.132,0.686-0.208,0.686-0.208s-0.237,0.107-0.652,0.296
				c-0.21,0.094-0.465,0.208-0.756,0.34c-0.309,0.088-0.658,0.187-1.037,0.296c-0.38,0.134-0.811,0.158-1.264,0.229
				c-0.456,0.087-0.938,0.078-1.441,0.08c-0.507,0.029-1.019-0.061-1.549-0.11c-0.531-0.049-1.047-0.202-1.581-0.303
				c-0.514-0.154-1.04-0.295-1.538-0.482c-0.494-0.193-0.991-0.373-1.443-0.599c-0.074-0.033-0.135-0.071-0.207-0.104
				c0.719,1.162,1.581,2.217,2.571,3.13c0.779,0.66,1.993,1.569,3.635,2.461c0.129,0.063,0.252,0.139,0.382,0.198
				c0.001-0.001,0.002,0.006,0.003,0.006c2.793,1.452,6.73,2.807,11.809,2.897c4.299,0.366,7.394,3.466,8.631,7.311
				c0.697-2.835,0.818-5.861,0.24-8.918C156.916-11.257,153.127-16.28,148.093-19.25z"/>
			<path fill="#FFFFFF" d="M166.494-17.745c-6.336-2.838-9.854,2.117-9.854,2.117l0.036,0.025c-0.482,0.628-0.891,1.378-1.195,2.248
				c-0.161,0.253-0.292,0.516-0.405,0.784c1.44,2.219,2.486,4.746,3.01,7.509c0.578,3.056,0.456,6.083-0.242,8.917l0,0
				c0,0,7.614-1.803,6.404-12.22c0.215-2.881,1.917-5.436,2.426-6.015c1.266-0.299,2.896-1.97,2.896-1.97
				S168.787-17.547,166.494-17.745z"/>
			<g>
				<path fill="#FFFFFF" d="M155.871,4.608c0.061-0.001,0.118,0.006,0.181,0.007c-0.378-0.076-1.98-0.395-4.729,0.212
					c-0.03,0.267-0.05,0.534-0.047,0.81c0.003,0.313,0.034,0.617,0.081,0.919C152.498,5.37,154.096,4.627,155.871,4.608z"/>
			</g>
			<g>
				<path fill="#FFFFFF" d="M152.105,8.712c-0.373-0.655-0.629-1.386-0.75-2.159c-1.121,1.162-1.807,2.746-1.79,4.489
					c0.01,0.931,0.223,1.81,0.589,2.604c0.248-2.001,1.102-3.73,2.086-5.125C152.195,8.584,152.149,8.646,152.105,8.712z"/>
			</g>
			<g>
				<path fill="#FFFFFF" d="M156.121,4.629L156.121,4.629c0.015,0.002,0.021,0.003,0.018,0h0.001
					C156.143,4.632,156.137,4.632,156.121,4.629L156.121,4.629z"/>
				<path fill="#FFFFFF" d="M156.052,4.615c0.029,0.006,0.052,0.012,0.065,0.014c-0.156-0.029-1.158-0.277-2.947-0.1
					C154.797,4.364,155.769,4.559,156.052,4.615z"/>
				<path fill="#FFFFFF" d="M150.155,13.646L150.155,13.646c-0.366-0.794-0.58-1.672-0.589-2.602
					c-0.017-1.745,0.668-3.329,1.79-4.491c-0.047-0.3-0.077-0.605-0.081-0.919c-0.002-0.272,0.018-0.542,0.048-0.808
					c0.688-0.151,1.302-0.244,1.844-0.299c-1.073,0.107-2.426,0.366-4.06,0.925c-12.6,4.324-9.397,15.205-9.011,16.057
					c0.864,0.42,1.713,0.595,2.554,0.634c-0.057-0.283-0.109-0.581-0.139-0.901c-0.066-0.525-0.069-1.092-0.04-1.652
					c0.04-0.28,0.049-0.56,0.113-0.832c0.063-0.269,0.104-0.537,0.203-0.782c0.084-0.247,0.16-0.488,0.278-0.697
					c0.11-0.214,0.194-0.422,0.323-0.586c0.116-0.17,0.224-0.326,0.318-0.464c0.114-0.124,0.212-0.229,0.294-0.317
					c0.162-0.175,0.254-0.272,0.254-0.272s-0.078,0.11-0.216,0.303c-0.069,0.098-0.151,0.213-0.246,0.346
					c-0.074,0.146-0.158,0.312-0.249,0.49c-0.103,0.172-0.156,0.385-0.234,0.599c-0.086,0.21-0.127,0.449-0.176,0.69
					c-0.063,0.238-0.066,0.496-0.093,0.752c-0.027,0.256,0,0.521-0.004,0.779c0.042,0.522,0.112,1.039,0.237,1.514
					c0.086,0.377,0.2,0.714,0.311,1.023c1.361-0.086,2.706-0.439,4.06-0.656c-0.024-0.044-0.048-0.082-0.072-0.128
					c-0.281-0.52-0.516-1.108-0.712-1.706c-0.073-0.308-0.178-0.605-0.22-0.912c-0.044-0.306-0.11-0.604-0.107-0.898
					c-0.013-0.294-0.032-0.575,0.006-0.842c0.029-0.268,0.031-0.52,0.099-0.743c0.053-0.225,0.1-0.433,0.143-0.614
					c0.069-0.174,0.128-0.326,0.178-0.45c0.098-0.249,0.155-0.39,0.155-0.39s-0.04,0.146-0.108,0.405
					c-0.034,0.128-0.075,0.281-0.122,0.461c-0.021,0.183-0.043,0.388-0.07,0.612c-0.04,0.222-0.013,0.469-0.011,0.724
					c-0.007,0.256,0.043,0.523,0.087,0.798c0.028,0.275,0.126,0.55,0.199,0.83c0.072,0.28,0.206,0.55,0.304,0.824
					c0.25,0.536,0.529,1.054,0.847,1.506c0.097,0.147,0.198,0.275,0.298,0.409c1.431-0.139,2.878-0.02,4.378,0.865
					C150.467,19.033,149.848,16.132,150.155,13.646z"/>
			</g>
		</g>
		<g>
			<g>
				<path fill="#FFFFFF" d="M169.623,11.549V0.563h2.068v8.966h5.602v2.021H169.623L169.623,11.549z"/>
				<path fill="#FFFFFF" d="M181.725,11.549V0.563h2.068v10.986H181.725L181.725,11.549z"/>
				<path fill="#FFFFFF" d="M228.352,11.549V0.563h2.068v10.986H228.352L228.352,11.549z"/>
				<path fill="#FFFFFF" d="M238.22,11.12c-0.65-0.28-1.24-0.679-1.745-1.181c-0.517-0.501-0.915-1.092-1.181-1.757
					c-0.296-0.68-0.441-1.389-0.441-2.142c0-3.028,2.481-5.495,5.51-5.495c0.855,0,1.712,0.208,2.466,0.591
					c0.753,0.37,1.432,0.945,1.936,1.625L245,3.059l-1.579,1.167l-0.223-0.297c-0.665-0.9-1.697-1.418-2.834-1.418
					c-1.95,0-3.547,1.58-3.547,3.531c0,1.964,1.597,3.56,3.547,3.56c1.121,0,2.155-0.518,2.834-1.418l0.223-0.28l1.565,1.15
					l-0.237,0.296c-0.517,0.695-1.167,1.242-1.935,1.626c-0.753,0.385-1.597,0.577-2.452,0.577
					C239.623,11.549,238.898,11.401,238.22,11.12z"/>
				<polygon fill="#FFFFFF" points="195.195,3.146 195.195,7.753 190.335,0.563 188.329,0.563 188.329,11.549 190.397,11.549 
					190.397,4.344 195.273,11.549 197.264,11.549 197.264,3.146 				"/>
				<g>
					<polygon fill="#FFFFFF" points="205.679,5.816 211.26,0.563 208.298,0.563 203.914,4.683 203.914,0.563 201.863,0.563 
						201.863,11.549 203.914,11.549 203.914,7.477 205.674,5.81 					"/>
					<polygon fill="#FFFFFF" points="208.461,6.1 206.908,7.543 209.764,11.549 212.34,11.549 					"/>
				</g>
				<path fill="#FFFFFF" d="M219.297,11.526V2.577h-2.7V0.54h7.467v2.037h-2.699v8.949H219.297z"/>
			</g>
		</g>
	</g>
	<g>
		<path fill="#FFFFFF" d="M56.983-3.187c-0.351,0-0.747-0.024-0.979-0.07v3.521H55v-8.128c0.583-0.28,1.352-0.443,2.216-0.443
			c1.936,0,3.009,1.003,3.009,2.577C60.225-4.248,59.081-3.187,56.983-3.187z M57.228-7.501c-0.491,0-0.946,0.081-1.226,0.197v3.243
			c0.234,0.046,0.594,0.069,0.944,0.069c1.481,0,2.286-0.687,2.286-1.749C59.234-6.896,58.522-7.501,57.228-7.501z"/>
		<path fill="#FFFFFF" d="M63.797,0.394c-1.738,0-2.671-1.411-2.671-3.278c0-1.863,0.933-3.264,2.671-3.264
			c1.737,0,2.67,1.4,2.67,3.264C66.466-1.018,65.533,0.394,63.797,0.394z M63.797-5.356c-1.144,0-1.703,1.016-1.703,2.462
			s0.56,2.483,1.703,2.483c1.143,0,1.702-1.037,1.702-2.483S64.939-5.356,63.797-5.356z"/>
		<path fill="#FFFFFF" d="M74.237,0.265h-0.991L71.963-4.12c-0.117-0.396-0.186-0.863-0.186-0.863h-0.024
			c0,0-0.082,0.468-0.199,0.863l-1.282,4.385h-0.992l-1.913-6.286h0.979l1.236,4.445c0.117,0.419,0.198,0.954,0.198,0.954h0.022
			c0,0,0.094-0.535,0.212-0.954l1.282-4.445h0.932l1.272,4.445c0.116,0.419,0.221,0.954,0.221,0.954h0.024
			c0,0,0.069-0.535,0.186-0.954l1.248-4.445h0.967L74.237,0.265z"/>
		<path fill="#FFFFFF" d="M82.289-3.034l-4.292,0.616c0.105,1.342,0.91,2.019,2.111,2.019c0.631,0,1.295-0.152,1.715-0.384
			l0.301,0.733c-0.454,0.256-1.235,0.443-2.063,0.443c-1.877,0-3.009-1.212-3.009-3.278c0-1.934,1.039-3.264,2.74-3.264
			c1.551,0,2.508,1.016,2.508,2.693C82.301-3.326,82.301-3.187,82.289-3.034z M79.781-5.403c-1.106,0-1.818,0.887-1.842,2.311
			l3.429-0.491C81.356-4.819,80.727-5.403,79.781-5.403z"/>
		<path fill="#FFFFFF" d="M86.503-5.286c-0.163-0.035-0.361-0.047-0.56-0.047c-0.432,0-0.898,0.07-1.19,0.199v5.398h-0.979v-5.971
			c0.571-0.256,1.433-0.443,2.298-0.443c0.232,0,0.441,0.023,0.616,0.046L86.503-5.286z"/>
		<path fill="#FFFFFF" d="M92.686-3.034l-4.292,0.616c0.104,1.342,0.91,2.019,2.11,2.019c0.631,0,1.296-0.152,1.715-0.384
			l0.304,0.733c-0.456,0.256-1.235,0.443-2.064,0.443c-1.877,0-3.008-1.212-3.008-3.278c0-1.934,1.037-3.264,2.74-3.264
			c1.551,0,2.508,1.016,2.508,2.693C92.698-3.326,92.698-3.187,92.686-3.034z M90.177-5.403c-1.107,0-1.818,0.887-1.842,2.311
			l3.429-0.491C91.752-4.819,91.124-5.403,90.177-5.403z"/>
		<path fill="#FFFFFF" d="M96.924,0.394c-1.913,0-2.985-1.248-2.985-3.195c0-1.923,1.025-3.276,2.904-3.276
			c0.431,0,0.897,0.082,1.13,0.164v-2.975h0.968v8.839C98.567,0.173,97.751,0.394,96.924,0.394z M97.972-5.158
			C97.787-5.24,97.296-5.31,96.911-5.31c-1.317,0-2.006,1.062-2.006,2.508c0,1.458,0.712,2.402,2.006,2.402
			c0.396,0,0.886-0.106,1.061-0.198V-5.158z"/>
		<path fill="#FFFFFF" d="M105.801,0.394c-0.769,0-1.516-0.197-1.994-0.443v-8.84h0.979v3.056c0.326-0.151,0.829-0.28,1.307-0.28
			c1.62,0,2.729,1.179,2.729,3.114C108.823-0.633,107.563,0.394,105.801,0.394z M105.966-5.344c-0.42,0-0.887,0.104-1.178,0.256
			v4.491c0.21,0.104,0.631,0.197,1.063,0.197c1.119,0,1.994-0.735,1.994-2.542C107.843-4.447,107.097-5.344,105.966-5.344z"/>
		<path fill="#FFFFFF" d="M112.081,2.772h-1.015l0.944-2.508l-2.355-6.286h1.061l1.562,4.573c0.141,0.408,0.223,0.896,0.223,0.896
			h0.022c0,0,0.081-0.49,0.222-0.896l1.551-4.573h1.073L112.081,2.772z"/>
	</g>
</g>
</svg>
