<?xml version="1.0" encoding="utf-8"?>
<!-- Generator: Adobe Illustrator 16.0.0, SVG Export Plug-In . SVG Version: 6.00 Build 0)  -->
<!DOCTYPE svg PUBLIC "-//W3C//DTD SVG 1.1//EN" "http://www.w3.org/Graphics/SVG/1.1/DTD/svg11.dtd">
<svg version="1.1" xmlns="http://www.w3.org/2000/svg" xmlns:xlink="http://www.w3.org/1999/xlink" x="0px" y="0px" width="319px"
	 height="100px" viewBox="0 0 319 100" enable-background="new 0 0 319 100" xml:space="preserve">
<g id="Layer_1" display="none">
	<g display="inline">
		<g>
			<g>
				
					<linearGradient id="SVGID_1_" gradientUnits="userSpaceOnUse" x1="9673.373" y1="77.5156" x2="9663.3672" y2="83.323" gradientTransform="matrix(-1 0 0 1 9769.9316 0)">
					<stop  offset="0" style="stop-color:#A37B58"/>
					<stop  offset="0.7626" style="stop-color:#DCAE7C"/>
					<stop  offset="1" style="stop-color:#EEC087"/>
				</linearGradient>
				<path fill="url(#SVGID_1_)" d="M102.689,71.98c0.989,2.123,9.829,3.92,9.138,8.202c-1.104,7.869-19.855,2.589-19.855,3.968
					c2.487-5.522,13.916-0.241,15.574-4.106c0.552-1.245-4.144-3.593-5.802-3.455C100.087,76.728,101.701,69.863,102.689,71.98z"/>
				
					<radialGradient id="SVGID_2_" cx="9778.1563" cy="188.7852" r="46.9854" gradientTransform="matrix(-0.3614 0 0 0.3614 3623.5024 3.2629)" gradientUnits="userSpaceOnUse">
					<stop  offset="0" style="stop-color:#A37B58"/>
					<stop  offset="1" style="stop-color:#EEC087"/>
				</radialGradient>
				<path fill="url(#SVGID_2_)" d="M69.465,27.065C41.741,62.312,83.46,80.528,95.675,80.353
					C102.303,52.579,74.87,41.549,69.465,27.065z"/>
				
					<radialGradient id="SVGID_3_" cx="10159.1289" cy="174.8926" r="58.9286" gradientTransform="matrix(-0.337 0 0 0.6603 3500.6973 -49.0071)" gradientUnits="userSpaceOnUse">
					<stop  offset="0" style="stop-color:#A37B58"/>
					<stop  offset="1" style="stop-color:#EEC087"/>
				</radialGradient>
				<path fill="url(#SVGID_3_)" d="M78.157,78.611c-34.56-23.839-6.852-53.88-6.394-51.105c3.196,6.694,24.51,19.102,16.899,36.898
					C85.618,71.588,79.832,71.752,78.157,78.611z"/>
				
					<radialGradient id="SVGID_4_" cx="9741.7168" cy="190.1338" r="0" gradientTransform="matrix(-0.3614 0 0 0.3614 3623.5024 3.2629)" gradientUnits="userSpaceOnUse">
					<stop  offset="0" style="stop-color:#E38132"/>
					<stop  offset="1" style="stop-color:#F2D0B6"/>
				</radialGradient>
				<path fill="url(#SVGID_4_)" d="M102.689,71.98"/>
				
					<radialGradient id="SVGID_5_" cx="9810.4453" cy="271.9043" r="131.2348" gradientTransform="matrix(-0.3614 0 0 0.3614 3623.5024 3.2629)" gradientUnits="userSpaceOnUse">
					<stop  offset="0" style="stop-color:#A37B58"/>
					<stop  offset="1" style="stop-color:#EEC087"/>
				</radialGradient>
				<path fill="url(#SVGID_5_)" d="M89.735,77.385c2.298-8.065-4.791-10.4-0.763-19.608c1.049-1.312,1.835-4.063,4.325-3.538
					c3.763,0.867,3.739,3.553,5.994,5.913c6.438,6.116,5.655,18.617-0.918,19.048c-1.689,0.751-0.842-11.961-0.995-10.432
					c-0.314,4.931-0.746,6.226,0.274,10.933c-1.586,2.175-7.195,3.331-8.97,2.063c-1.244-0.351-2.249-0.917-2.821-1.542
					C85.494,79.56,87.365,77.798,89.735,77.385z"/>
				
					<linearGradient id="SVGID_6_" gradientUnits="userSpaceOnUse" x1="9692.7617" y1="49.8525" x2="9687.2109" y2="79.5346" gradientTransform="matrix(-1 0 0 1 9769.9316 0)">
					<stop  offset="0" style="stop-color:#A37B58"/>
					<stop  offset="1" style="stop-color:#EEC087"/>
				</linearGradient>
				<path fill="url(#SVGID_6_)" d="M78.255,56.171c-0.659-7.206,7.542-5.575,8.849,0.38c1.216,5.306-3.822,9.144-4.23,19.313
					c-0.293,1.475-0.061,2.537,0.198,3.321c0.87,0.894,0.861,2.789,0.888,3.375c-4.395,2.792-9.338,0.123-9.338,0.123
					s-0.093-0.492,0.203-1.125C74.702,77.486,78.836,62.529,78.255,56.171z"/>
				
					<linearGradient id="SVGID_7_" gradientUnits="userSpaceOnUse" x1="9705.2461" y1="52.1865" x2="9699.6963" y2="81.8681" gradientTransform="matrix(-1 0 0 1 9769.9316 0)">
					<stop  offset="0" style="stop-color:#A37B58"/>
					<stop  offset="1" style="stop-color:#EEC087"/>
				</linearGradient>
				<path fill="url(#SVGID_7_)" d="M66.858,78.475c0.375-0.338,0.711-0.771,0.869-1.425c-0.569-11.861-9.009-19.849-7.454-27.19
					c2.991-1.24,9.083,0.954,9.218,5.243c0.188,5.746,7.329,20.152,4.658,27.215c-0.004,0.081-0.013,0.131-0.013,0.131
					s-0.055,0.027-0.154,0.077c-0.23,0.152-0.513,0.269-0.835,0.353c-1.665,0.615-5.149,1.478-8.348-0.554
					C64.835,81.547,64.808,78.46,66.858,78.475z"/>
				
					<linearGradient id="SVGID_8_" gradientUnits="userSpaceOnUse" x1="9694.998" y1="88.5996" x2="9688.9561" y2="79.6941" gradientTransform="matrix(-1 0 0 1 9769.9316 0)">
					<stop  offset="0" style="stop-color:#A37B58"/>
					<stop  offset="1" style="stop-color:#EEC087"/>
				</linearGradient>
				<path opacity="0.44" fill="url(#SVGID_8_)" d="M83.959,82.56c-4.395,2.792-9.338,0.123-9.338,0.123s-0.628-3.296,6.514-3.845
					C83.959,77.976,83.92,81.694,83.959,82.56z"/>
				
					<linearGradient id="SVGID_9_" gradientUnits="userSpaceOnUse" x1="261.5361" y1="88.3652" x2="255.4937" y2="79.4586" gradientTransform="matrix(1 0 0 1 -187.71 0)">
					<stop  offset="0" style="stop-color:#A37B58"/>
					<stop  offset="1" style="stop-color:#EEC087"/>
				</linearGradient>
				<path opacity="0.44" fill="url(#SVGID_9_)" d="M64.799,82.324c4.395,2.791,9.338,0.124,9.338,0.124s0.627-3.297-6.514-3.847
					C64.799,77.741,64.838,81.459,64.799,82.324z"/>
				<g>
					
						<linearGradient id="SVGID_10_" gradientUnits="userSpaceOnUse" x1="9177.1406" y1="12.416" x2="9178.0498" y2="26.2654" gradientTransform="matrix(-1.1194 -6.000000e-004 6.000000e-004 1 10354.46 2.3876)">
						<stop  offset="0" style="stop-color:#884A25"/>
						<stop  offset="1" style="stop-color:#EEC087"/>
					</linearGradient>
					<path fill="url(#SVGID_10_)" d="M79.491,22.762c-4.617-6.33,3.213-7.918,4.486-7.75C79.964,17.214,84.382,19.239,79.491,22.762
						z"/>
					
						<linearGradient id="SVGID_11_" gradientUnits="userSpaceOnUse" x1="9696.7949" y1="26.2813" x2="9676.3379" y2="32.5167" gradientTransform="matrix(-1 0 0 1 9769.9316 0)">
						<stop  offset="0" style="stop-color:#C09059"/>
						<stop  offset="1" style="stop-color:#EEC087"/>
					</linearGradient>
					<path fill="url(#SVGID_11_)" d="M83.625,20.786c0,0,4.947,1.684,5.194,1.882c0.247,0.197,0.644,1.328,0.831,1.464
						c0.19,0.136,7.474,2.994,7.734,3.429c0.262,0.435-0.069,1.49-0.616,2.389c0.221,2.851-1.263,6.634-5.487,3.652
						c-3.384-2.389-5.015,2.366,0.527,1.394c2.486,0.769,3.031,0.896,2.966,1.382c-0.064,0.488-0.779,2.416-1.494,2.866
						c-0.715,0.45-3.122-0.714-3.448-0.971c-0.329-0.256-1.795-1.07-2.176-0.914c-0.379,0.157-2.173,1.084-4.781,0.532
						c-7.47-1.583-5.501-7.501-4.035-10.37C78.842,27.521,78.03,19.47,83.625,20.786z"/>
					<defs>
						<filter id="Adobe_OpacityMaskFilter" filterUnits="userSpaceOnUse" x="84.483" y="23.322" width="8.951" height="4.524">
							<feFlood  style="flood-color:white;flood-opacity:1" result="back"/>
							<feBlend  in="SourceGraphic" in2="back" mode="normal"/>
						</filter>
					</defs>
					<mask maskUnits="userSpaceOnUse" x="84.483" y="23.322" width="8.951" height="4.524" id="SVGID_12_">
						<g filter="url(#Adobe_OpacityMaskFilter)">
							<defs>
								<filter id="Adobe_OpacityMaskFilter_1_" filterUnits="userSpaceOnUse" x="84.483" y="23.322" width="8.951" height="4.524">
									<feFlood  style="flood-color:white;flood-opacity:1" result="back"/>
									<feBlend  in="SourceGraphic" in2="back" mode="normal"/>
								</filter>
							</defs>
							<mask maskUnits="userSpaceOnUse" x="84.483" y="23.322" width="8.951" height="4.524" id="SVGID_12_">
								<g filter="url(#Adobe_OpacityMaskFilter_1_)">
								</g>
							</mask>
							
								<linearGradient id="SVGID_13_" gradientUnits="userSpaceOnUse" x1="9138.6309" y1="-1950.4922" x2="9144.7578" y2="-1944.5005" gradientTransform="matrix(-0.9063 0.3737 0.3759 0.8771 9107.2217 -1684.3354)">
								<stop  offset="0" style="stop-color:#FFFFFF"/>
								<stop  offset="1" style="stop-color:#000000"/>
							</linearGradient>
							<path mask="url(#SVGID_12_)" fill="url(#SVGID_13_)" d="M87.854,23.344c0.084,0.022,0.25,0.111,0.295,0.401
								c0.07,0.429,0.11,0.94,0.066,1.421c-0.027,0.279,4.691,2.273,5.163,2.536c0.128,0.07,0.012,0.182-0.094,0.131
								c-0.471-0.222-5.347-2.3-5.382-2.297c-0.565,0.072-1.899,0.137-3.157-0.588c-0.361-0.208-0.318-0.255-0.058-0.524
								C85.105,23.992,86.735,23.177,87.854,23.344z"/>
						</g>
					</mask>
					
						<linearGradient id="SVGID_14_" gradientUnits="userSpaceOnUse" x1="9676.498" y1="25.584" x2="9685.4473" y2="25.584" gradientTransform="matrix(-1 0 0 1 9769.9316 0)">
						<stop  offset="0" style="stop-color:#C09059"/>
						<stop  offset="1" style="stop-color:#EEC087"/>
					</linearGradient>
					<path fill="url(#SVGID_14_)" d="M87.854,23.344c0.084,0.022,0.25,0.111,0.295,0.401c0.07,0.429,0.11,0.94,0.066,1.421
						c-0.027,0.279,4.691,2.273,5.163,2.536c0.128,0.07,0.012,0.182-0.094,0.131c-0.471-0.222-5.347-2.3-5.382-2.297
						c-0.565,0.072-1.899,0.137-3.157-0.588c-0.361-0.208-0.318-0.255-0.058-0.524C85.105,23.992,86.735,23.177,87.854,23.344z"/>
					
						<linearGradient id="SVGID_15_" gradientUnits="userSpaceOnUse" x1="9682.1602" y1="24.4189" x2="9684.8848" y2="24.4189" gradientTransform="matrix(-1 0 0 1 9769.9316 0)">
						<stop  offset="0" style="stop-color:#A9831F"/>
						<stop  offset="1" style="stop-color:#482D07"/>
					</linearGradient>
					<path fill="url(#SVGID_15_)" d="M87.492,23.592c0.063,0.019,0.182,0.085,0.218,0.303c0.055,0.341,0.077,0.75,0.048,1.129
						c-0.008,0.11-0.067,0.189-0.151,0.202c-0.359,0.054-1.394,0.141-2.37-0.441c-0.263-0.157-0.232-0.191-0.044-0.392
						C85.496,24.07,86.679,23.464,87.492,23.592z"/>
					<defs>
						<filter id="Adobe_OpacityMaskFilter_2_" filterUnits="userSpaceOnUse" x="94.863" y="27.561" width="2.613" height="2.389">
							<feFlood  style="flood-color:white;flood-opacity:1" result="back"/>
							<feBlend  in="SourceGraphic" in2="back" mode="normal"/>
						</filter>
					</defs>
					<mask maskUnits="userSpaceOnUse" x="94.863" y="27.561" width="2.613" height="2.389" id="SVGID_16_">
						<g filter="url(#Adobe_OpacityMaskFilter_2_)">
							<defs>
								<filter id="Adobe_OpacityMaskFilter_3_" filterUnits="userSpaceOnUse" x="94.863" y="27.561" width="2.613" height="2.389">
									<feFlood  style="flood-color:white;flood-opacity:1" result="back"/>
									<feBlend  in="SourceGraphic" in2="back" mode="normal"/>
								</filter>
							</defs>
							<mask maskUnits="userSpaceOnUse" x="94.863" y="27.561" width="2.613" height="2.389" id="SVGID_16_">
								<g filter="url(#Adobe_OpacityMaskFilter_3_)">
								</g>
							</mask>
							
								<linearGradient id="SVGID_17_" gradientUnits="userSpaceOnUse" x1="8968.7383" y1="-1909.8984" x2="8975.2275" y2="-1913.5428" gradientTransform="matrix(-0.9219 0.3875 0.3875 0.9219 9108.0879 -1685.5947)">
								<stop  offset="0" style="stop-color:#FFFFFF"/>
								<stop  offset="1" style="stop-color:#303030"/>
							</linearGradient>
							<path mask="url(#SVGID_16_)" fill="url(#SVGID_17_)" d="M94.864,28.481c-0.06-0.415,2.832-0.194,2.521-0.921
								c0.262,0.435-0.069,1.49-0.616,2.389C96.332,28.791,95.096,29.637,94.864,28.481z"/>
						</g>
					</mask>
					
						<linearGradient id="SVGID_18_" gradientUnits="userSpaceOnUse" x1="9671.9902" y1="30.5566" x2="9674.2354" y2="27.534" gradientTransform="matrix(-1 0 0 1 9769.9316 0)">
						<stop  offset="0" style="stop-color:#A9831F"/>
						<stop  offset="1" style="stop-color:#482D07"/>
					</linearGradient>
					<path fill="url(#SVGID_18_)" d="M94.864,28.481c-0.06-0.415,2.832-0.194,2.521-0.921c0.262,0.435-0.069,1.49-0.616,2.389
						C96.332,28.791,95.096,29.637,94.864,28.481z"/>
					<defs>
						<filter id="Adobe_OpacityMaskFilter_4_" filterUnits="userSpaceOnUse" x="77.461" y="21.693" width="19.318" height="17.653">
							<feFlood  style="flood-color:white;flood-opacity:1" result="back"/>
							<feBlend  in="SourceGraphic" in2="back" mode="normal"/>
						</filter>
					</defs>
					<mask maskUnits="userSpaceOnUse" x="77.461" y="21.693" width="19.318" height="17.653" id="SVGID_19_">
						<g filter="url(#Adobe_OpacityMaskFilter_4_)">
							<defs>
								
									<filter id="Adobe_OpacityMaskFilter_5_" filterUnits="userSpaceOnUse" x="77.461" y="21.693" width="19.318" height="17.653">
									<feFlood  style="flood-color:white;flood-opacity:1" result="back"/>
									<feBlend  in="SourceGraphic" in2="back" mode="normal"/>
								</filter>
							</defs>
							<mask maskUnits="userSpaceOnUse" x="77.461" y="21.693" width="19.318" height="17.653" id="SVGID_19_">
								<g filter="url(#Adobe_OpacityMaskFilter_5_)">
								</g>
							</mask>
							
								<radialGradient id="SVGID_20_" cx="9078.2363" cy="-1922.0757" r="29.79" gradientTransform="matrix(-0.3332 0.14 0.14 0.3332 3384.3013 -605.9384)" gradientUnits="userSpaceOnUse">
								<stop  offset="0" style="stop-color:#FFFFFF"/>
								<stop  offset="1" style="stop-color:#303030"/>
							</radialGradient>
							<path mask="url(#SVGID_19_)" fill="url(#SVGID_20_)" d="M77.986,29.538c0.742-1.457,1.247-2.155,1.339-3.529
								c0.131-1.929,1.358-4.364,3.542-4.315c3.219,0.292,2.638,1.275,1.253,2.018c-2.172,1.164-2.49,4.93,1.527,4.956
								c6.916,0.043,10.566,0.318,11.132,2.208c-0.135,2.649-1.721,5.392-5.498,2.726c-3.384-2.389-5.015,2.366,0.527,1.394
								c2.486,0.769,3.031,0.896,2.966,1.382c-0.064,0.488-0.779,2.416-1.494,2.866c-0.715,0.45-3.122-0.714-3.448-0.971
								c-0.329-0.256-1.795-1.07-2.176-0.914c-0.379,0.157-2.173,1.084-4.781,0.532C76.892,36.625,76.966,32.574,77.986,29.538
								L77.986,29.538z"/>
						</g>
					</mask>
					
						<radialGradient id="SVGID_21_" cx="9806.2227" cy="65.4824" r="36.6148" gradientTransform="matrix(-0.3614 0 0 0.3614 3623.5024 3.2629)" gradientUnits="userSpaceOnUse">
						<stop  offset="0" style="stop-color:#A37B58"/>
						<stop  offset="1" style="stop-color:#EEC087"/>
					</radialGradient>
					<path fill="url(#SVGID_21_)" d="M77.986,29.538c0.742-1.457,1.247-2.155,1.339-3.529c0.131-1.929,1.358-4.364,3.542-4.315
						c3.219,0.292,2.638,1.275,1.253,2.018c-2.172,1.164-2.49,4.93,1.527,4.956c6.916,0.043,10.566,0.318,11.132,2.208
						c-0.135,2.649-1.721,5.392-5.498,2.726c-3.384-2.389-5.015,2.366,0.527,1.394c2.486,0.769,3.031,0.896,2.966,1.382
						c-0.064,0.488-0.779,2.416-1.494,2.866c-0.715,0.45-3.122-0.714-3.448-0.971c-0.329-0.256-1.795-1.07-2.176-0.914
						c-0.379,0.157-2.173,1.084-4.781,0.532C76.892,36.625,76.966,32.574,77.986,29.538L77.986,29.538z"/>
					<defs>
						<filter id="Adobe_OpacityMaskFilter_6_" filterUnits="userSpaceOnUse" x="77.461" y="29.337" width="13.677" height="9.581">
							<feFlood  style="flood-color:white;flood-opacity:1" result="back"/>
							<feBlend  in="SourceGraphic" in2="back" mode="normal"/>
						</filter>
					</defs>
					<mask maskUnits="userSpaceOnUse" x="77.461" y="29.337" width="13.677" height="9.581" id="SVGID_22_">
						<g filter="url(#Adobe_OpacityMaskFilter_6_)">
							<defs>
								
									<filter id="Adobe_OpacityMaskFilter_7_" filterUnits="userSpaceOnUse" x="77.461" y="29.337" width="13.677" height="9.581">
									<feFlood  style="flood-color:white;flood-opacity:1" result="back"/>
									<feBlend  in="SourceGraphic" in2="back" mode="normal"/>
								</filter>
							</defs>
							<mask maskUnits="userSpaceOnUse" x="77.461" y="29.337" width="13.677" height="9.581" id="SVGID_22_">
								<g filter="url(#Adobe_OpacityMaskFilter_7_)">
								</g>
							</mask>
							
								<linearGradient id="SVGID_23_" gradientUnits="userSpaceOnUse" x1="8992.2734" y1="-1907.6812" x2="8984.7949" y2="-1911.0049" gradientTransform="matrix(-0.9219 0.3875 0.3875 0.9219 9108.0879 -1685.5947)">
								<stop  offset="0" style="stop-color:#FFFFFF"/>
								<stop  offset="1" style="stop-color:#000000"/>
							</linearGradient>
							<path mask="url(#SVGID_22_)" fill="url(#SVGID_23_)" d="M77.986,29.538L77.986,29.538c0.036-0.069,0.069-0.135,0.104-0.2
								c-0.82,3.15-0.664,7.179,5.202,8.334c2.212,0.436,3.878-0.642,4.259-0.798c0.38-0.155,1.744,1.062,3.588,2.045
								c-0.623-0.248-1.162-0.533-1.305-0.646c-0.329-0.256-1.795-1.07-2.176-0.914c-0.379,0.157-2.173,1.084-4.781,0.532
								C76.892,36.625,76.966,32.574,77.986,29.538z"/>
						</g>
					</mask>
					
						<radialGradient id="SVGID_24_" cx="9792.5977" cy="85.4004" r="16.3349" gradientTransform="matrix(-0.3614 0 0 0.3614 3623.5024 3.2629)" gradientUnits="userSpaceOnUse">
						<stop  offset="0" style="stop-color:#E38132"/>
						<stop  offset="1" style="stop-color:#F2D0B6"/>
					</radialGradient>
					<path fill="url(#SVGID_24_)" d="M77.986,29.538L77.986,29.538c0.036-0.069,0.069-0.135,0.104-0.2
						c-0.82,3.15-0.664,7.179,5.202,8.334c2.212,0.436,3.878-0.642,4.259-0.798c0.38-0.155,1.744,1.062,3.588,2.045
						c-0.623-0.248-1.162-0.533-1.305-0.646c-0.329-0.256-1.795-1.07-2.176-0.914c-0.379,0.157-2.173,1.084-4.781,0.532
						C76.892,36.625,76.966,32.574,77.986,29.538z"/>
					<defs>
						<filter id="Adobe_OpacityMaskFilter_8_" filterUnits="userSpaceOnUse" x="79.965" y="20.641" width="17.443" height="7.841">
							<feFlood  style="flood-color:white;flood-opacity:1" result="back"/>
							<feBlend  in="SourceGraphic" in2="back" mode="normal"/>
						</filter>
					</defs>
					<mask maskUnits="userSpaceOnUse" x="79.965" y="20.641" width="17.443" height="7.841" id="SVGID_25_">
						<g filter="url(#Adobe_OpacityMaskFilter_8_)">
							<defs>
								
									<filter id="Adobe_OpacityMaskFilter_9_" filterUnits="userSpaceOnUse" x="79.965" y="20.641" width="17.443" height="7.841">
									<feFlood  style="flood-color:white;flood-opacity:1" result="back"/>
									<feBlend  in="SourceGraphic" in2="back" mode="normal"/>
								</filter>
							</defs>
							<mask maskUnits="userSpaceOnUse" x="79.965" y="20.641" width="17.443" height="7.841" id="SVGID_25_">
								<g filter="url(#Adobe_OpacityMaskFilter_9_)">
								</g>
							</mask>
							
								<linearGradient id="SVGID_26_" gradientUnits="userSpaceOnUse" x1="8974.0352" y1="-1919.7334" x2="8980.7471" y2="-1916.3456" gradientTransform="matrix(-0.9219 0.3875 0.3875 0.9219 9108.0879 -1685.5947)">
								<stop  offset="0" style="stop-color:#FFFFFF"/>
								<stop  offset="1" style="stop-color:#000000"/>
							</linearGradient>
							<path mask="url(#SVGID_25_)" fill="url(#SVGID_26_)" d="M79.965,21.856c0.715-0.943,1.852-1.495,3.66-1.07
								c0,0,4.947,1.684,5.194,1.882c0.247,0.197,0.644,1.328,0.831,1.464c0.19,0.136,7.474,2.994,7.734,3.429
								c0.312,0.727-2.581,0.506-2.521,0.921c-2.74-1.806-6.279-3.047-6.41-3.312c-0.168-0.337,0.173-1.641-0.336-2.063
								c-0.511-0.424-1.894-1.103-3.42-1.69c-1.347-0.519-3.156-1.324-4.67,0.483C80.007,21.885,79.986,21.87,79.965,21.856z"/>
						</g>
					</mask>
					
						<linearGradient id="SVGID_27_" gradientUnits="userSpaceOnUse" x1="9709.8086" y1="12.126" x2="9680.8037" y2="24.4185" gradientTransform="matrix(-1 0 0 1 9769.9316 0)">
						<stop  offset="0" style="stop-color:#E0B45C"/>
						<stop  offset="1" style="stop-color:#F1CB88"/>
					</linearGradient>
					<path fill="url(#SVGID_27_)" d="M79.965,21.856c0.715-0.943,1.852-1.495,3.66-1.07c0,0,4.947,1.684,5.194,1.882
						c0.247,0.197,0.644,1.328,0.831,1.464c0.19,0.136,7.474,2.994,7.734,3.429c0.312,0.727-2.581,0.506-2.521,0.921
						c-2.74-1.806-6.279-3.047-6.41-3.312c-0.168-0.337,0.173-1.641-0.336-2.063c-0.511-0.424-1.894-1.103-3.42-1.69
						c-1.347-0.519-3.156-1.324-4.67,0.483C80.007,21.885,79.986,21.87,79.965,21.856z"/>
					<defs>
						<filter id="Adobe_OpacityMaskFilter_10_" filterUnits="userSpaceOnUse" x="77.462" y="21.693" width="11.04" height="15.869">
							<feFlood  style="flood-color:white;flood-opacity:1" result="back"/>
							<feBlend  in="SourceGraphic" in2="back" mode="normal"/>
						</filter>
					</defs>
					<mask maskUnits="userSpaceOnUse" x="77.462" y="21.693" width="11.04" height="15.869" id="SVGID_28_">
						<g filter="url(#Adobe_OpacityMaskFilter_10_)">
							<defs>
								
									<filter id="Adobe_OpacityMaskFilter_11_" filterUnits="userSpaceOnUse" x="77.462" y="21.693" width="11.04" height="15.869">
									<feFlood  style="flood-color:white;flood-opacity:1" result="back"/>
									<feBlend  in="SourceGraphic" in2="back" mode="normal"/>
								</filter>
							</defs>
							<mask maskUnits="userSpaceOnUse" x="77.462" y="21.693" width="11.04" height="15.869" id="SVGID_28_">
								<g filter="url(#Adobe_OpacityMaskFilter_11_)">
								</g>
							</mask>
							
								<radialGradient id="SVGID_29_" cx="9065.0879" cy="-1909.0327" r="43.249" gradientTransform="matrix(-0.3332 0.14 0.14 0.3332 3384.3013 -605.9384)" gradientUnits="userSpaceOnUse">
								<stop  offset="0" style="stop-color:#FFFFFF"/>
								<stop  offset="1" style="stop-color:#303030"/>
							</radialGradient>
							<path mask="url(#SVGID_28_)" fill="url(#SVGID_29_)" d="M77.986,29.538L77.986,29.538c0.742-1.457,1.247-2.155,1.339-3.529
								c0.131-1.929,1.358-4.364,3.542-4.315c3.219,0.292,2.638,1.275,1.253,2.018c-2.072,1.111-2.457,4.587,0.998,4.928l0,0h0.001
								c0.112,0.011,0.228,0.019,0.35,0.022c3.278,0.363,4.629,4.863,0.282,7.809c-1.588,1.077-3.124,1.26-4.488,0.962
								C76.918,35.825,77.068,32.271,77.986,29.538z"/>
						</g>
					</mask>
					
						<linearGradient id="SVGID_30_" gradientUnits="userSpaceOnUse" x1="9674.4531" y1="25.3306" x2="9688.0039" y2="29.9344" gradientTransform="matrix(-1 0 0 1 9769.9316 0)">
						<stop  offset="0" style="stop-color:#EEC087"/>
						<stop  offset="1" style="stop-color:#C09059;stop-opacity:0"/>
					</linearGradient>
					<path opacity="0.48" fill="url(#SVGID_30_)" d="M77.986,29.538L77.986,29.538c0.742-1.457,1.247-2.155,1.339-3.529
						c0.131-1.929,1.358-4.364,3.542-4.315c3.219,0.292,2.638,1.275,1.253,2.018c-2.072,1.111-2.457,4.587,0.998,4.928l0,0h0.001
						c0.112,0.011,0.228,0.019,0.35,0.022c3.278,0.363,4.629,4.863,0.282,7.809c-1.588,1.077-3.124,1.26-4.488,0.962
						C76.918,35.825,77.068,32.271,77.986,29.538z"/>
					
						<linearGradient id="SVGID_31_" gradientUnits="userSpaceOnUse" x1="9679.8887" y1="26.7383" x2="9696.4678" y2="4.4924" gradientTransform="matrix(-1 -2.000000e-004 2.000000e-004 0.9523 9769.6504 20.8095)">
						<stop  offset="0" style="stop-color:#884A25"/>
						<stop  offset="1" style="stop-color:#EEC087"/>
					</linearGradient>
					<path fill="url(#SVGID_31_)" d="M78.934,27.279c-3.292-0.97-3.142-2.281-3.398-3.477C74.979,40.045,89.06,45.768,94.128,46.648
						C85.899,39.367,86.885,29.141,78.934,27.279z"/>
					
						<linearGradient id="SVGID_32_" gradientUnits="userSpaceOnUse" x1="9675.7402" y1="30.1675" x2="9703.1631" y2="15.3368" gradientTransform="matrix(-1 -2.000000e-004 2.000000e-004 0.9523 9769.6504 20.8095)">
						<stop  offset="0" style="stop-color:#884A25"/>
						<stop  offset="1" style="stop-color:#EEC087"/>
					</linearGradient>
					<path fill="url(#SVGID_32_)" d="M80.137,21.422c-7.626-1.785-5.485,10.943,6.489,21.746
						c11.974,10.803-0.682,19.413-0.682,19.413s4.557-10.918-7.461-18.091C64.813,36.177,63.65,18.407,80.137,21.422z"/>
					
						<linearGradient id="SVGID_33_" gradientUnits="userSpaceOnUse" x1="9697.6699" y1="37.7686" x2="9705.0146" y2="9.9272" gradientTransform="matrix(-1 -2.000000e-004 2.000000e-004 0.9523 9769.6504 20.8095)">
						<stop  offset="0" style="stop-color:#884A25"/>
						<stop  offset="1" style="stop-color:#EEC087"/>
					</linearGradient>
					<path fill="url(#SVGID_33_)" d="M68.691,25.216c-17.027,20.717,3.417,21.578,4.517,31.014
						C82.595,42.961,64.378,38.124,68.691,25.216z"/>
					
						<linearGradient id="SVGID_34_" gradientUnits="userSpaceOnUse" x1="9689.1914" y1="46.8828" x2="9693.249" y2="12.325" gradientTransform="matrix(-1 -2.000000e-004 2.000000e-004 0.9523 9769.6504 20.8095)">
						<stop  offset="0" style="stop-color:#884A25"/>
						<stop  offset="1" style="stop-color:#EEC087"/>
					</linearGradient>
					<path fill="url(#SVGID_34_)" d="M77.844,67.135c-8.518-15.15,4.894-14.464-6.489-29.004
						C79.335,48.898,94.153,48.125,77.844,67.135z"/>
					
						<linearGradient id="SVGID_35_" gradientUnits="userSpaceOnUse" x1="8962.9785" y1="36.332" x2="8973.6953" y2="36.332" gradientTransform="matrix(-1.1845 -0.0011 0.0011 0.9523 10687.5928 24.7857)">
						<stop  offset="0" style="stop-color:#884A25"/>
						<stop  offset="1" style="stop-color:#EEC087"/>
					</linearGradient>
					<path fill="url(#SVGID_35_)" d="M61.891,39.771c-10.282,9.258,4.527,13.871,6.153,19.497
						C76.851,51.138,63.222,49.231,61.891,39.771z"/>
					
						<linearGradient id="SVGID_36_" gradientUnits="userSpaceOnUse" x1="9707.0488" y1="33.0244" x2="9690.9775" y2="16.8713" gradientTransform="matrix(-1 0 0 1 9769.9316 0)">
						<stop  offset="0" style="stop-color:#884A25"/>
						<stop  offset="1" style="stop-color:#EEC087"/>
					</linearGradient>
					<path fill="url(#SVGID_36_)" d="M79.586,21.76c-3.702-4.347-9.024-3.644-11.053,0.623c-2.029,4.269-5.176,8.03-6.786,8.256
						C70.212,32.527,66.854,21.124,79.586,21.76z"/>
					
						<linearGradient id="SVGID_37_" gradientUnits="userSpaceOnUse" x1="9697.3086" y1="21.3174" x2="9688.8398" y2="25.867" gradientTransform="matrix(-1 0 0 1 9769.9316 0)">
						<stop  offset="0" style="stop-color:#884A25"/>
						<stop  offset="1" style="stop-color:#EEC087"/>
					</linearGradient>
					<path fill="url(#SVGID_37_)" d="M80.388,22.536c-3.168-3.426-8.135,2.583-1.708,5.15
						C79.299,26.655,79.214,23.464,80.388,22.536z"/>
					<defs>
						<filter id="Adobe_OpacityMaskFilter_12_" filterUnits="userSpaceOnUse" x="75.553" y="21.506" width="4.835" height="6.054">
							<feFlood  style="flood-color:white;flood-opacity:1" result="back"/>
							<feBlend  in="SourceGraphic" in2="back" mode="normal"/>
						</filter>
					</defs>
					<mask maskUnits="userSpaceOnUse" x="75.553" y="21.506" width="4.835" height="6.054" id="SVGID_38_">
						<g filter="url(#Adobe_OpacityMaskFilter_12_)">
							<defs>
								
									<filter id="Adobe_OpacityMaskFilter_13_" filterUnits="userSpaceOnUse" x="75.553" y="21.506" width="4.835" height="6.054">
									<feFlood  style="flood-color:white;flood-opacity:1" result="back"/>
									<feBlend  in="SourceGraphic" in2="back" mode="normal"/>
								</filter>
							</defs>
							<mask maskUnits="userSpaceOnUse" x="75.553" y="21.506" width="4.835" height="6.054" id="SVGID_38_">
								<g filter="url(#Adobe_OpacityMaskFilter_13_)">
								</g>
							</mask>
							
								<linearGradient id="SVGID_39_" gradientUnits="userSpaceOnUse" x1="8988.7871" y1="-1925.0156" x2="8986.3584" y2="-1922.1395" gradientTransform="matrix(-0.9219 0.3875 0.3875 0.9219 9108.0879 -1685.5947)">
								<stop  offset="0" style="stop-color:#FFFFFF"/>
								<stop  offset="1" style="stop-color:#000000"/>
							</linearGradient>
							<path mask="url(#SVGID_38_)" fill="url(#SVGID_39_)" d="M78.377,27.561c-5.965-2.632-1.107-8.396,2.01-5.025
								C76.897,19.945,73.7,25.171,78.377,27.561z"/>
						</g>
					</mask>
					
						<radialGradient id="SVGID_40_" cx="9810.1113" cy="58.8535" r="7.5798" gradientTransform="matrix(-0.3614 0 0 0.3614 3623.5024 3.2629)" gradientUnits="userSpaceOnUse">
						<stop  offset="0" style="stop-color:#A37B58"/>
						<stop  offset="1" style="stop-color:#EEC087"/>
					</radialGradient>
					<path fill="url(#SVGID_40_)" d="M78.377,27.561c-5.965-2.632-1.107-8.396,2.01-5.025C76.897,19.945,73.7,25.171,78.377,27.561z
						"/>
					<defs>
						<filter id="Adobe_OpacityMaskFilter_14_" filterUnits="userSpaceOnUse" x="76.254" y="22.04" width="3.733" height="4.77">
							<feFlood  style="flood-color:white;flood-opacity:1" result="back"/>
							<feBlend  in="SourceGraphic" in2="back" mode="normal"/>
						</filter>
					</defs>
					<mask maskUnits="userSpaceOnUse" x="76.254" y="22.04" width="3.733" height="4.77" id="SVGID_41_">
						<g filter="url(#Adobe_OpacityMaskFilter_14_)">
							<defs>
								<filter id="Adobe_OpacityMaskFilter_15_" filterUnits="userSpaceOnUse" x="76.254" y="22.04" width="3.733" height="4.77">
									<feFlood  style="flood-color:white;flood-opacity:1" result="back"/>
									<feBlend  in="SourceGraphic" in2="back" mode="normal"/>
								</filter>
							</defs>
							<mask maskUnits="userSpaceOnUse" x="76.254" y="22.04" width="3.733" height="4.77" id="SVGID_41_">
								<g filter="url(#Adobe_OpacityMaskFilter_15_)">
								</g>
							</mask>
							
								<linearGradient id="SVGID_42_" gradientUnits="userSpaceOnUse" x1="8984.3223" y1="-1920.5894" x2="8988.3701" y2="-1924.0409" gradientTransform="matrix(-0.9219 0.3875 0.3875 0.9219 9108.0879 -1685.5947)">
								<stop  offset="0" style="stop-color:#FFFFFF"/>
								<stop  offset="1" style="stop-color:#303030"/>
							</linearGradient>
							<path mask="url(#SVGID_41_)" fill="url(#SVGID_42_)" d="M79.987,22.835c-2.445-2.646-6.28,1.994-1.319,3.975
								C78.515,24.337,79.081,23.551,79.987,22.835z"/>
						</g>
					</mask>
					
						<linearGradient id="SVGID_43_" gradientUnits="userSpaceOnUse" x1="9690.75" y1="24.6968" x2="9693.4932" y2="23.1481" gradientTransform="matrix(-1 0 0 1 9769.9316 0)">
						<stop  offset="0" style="stop-color:#884A25"/>
						<stop  offset="1" style="stop-color:#EEC087"/>
					</linearGradient>
					<path fill="url(#SVGID_43_)" d="M79.987,22.835c-2.445-2.646-6.28,1.994-1.319,3.975
						C78.515,24.337,79.081,23.551,79.987,22.835z"/>
				</g>
				
					<linearGradient id="SVGID_44_" gradientUnits="userSpaceOnUse" x1="9673.9883" y1="79.7178" x2="9684.1172" y2="79.7178" gradientTransform="matrix(-1 0 0 1 9769.9316 0)">
					<stop  offset="0" style="stop-color:#A37B58"/>
					<stop  offset="1" style="stop-color:#EEC087"/>
				</linearGradient>
				<path opacity="0.44" fill="url(#SVGID_44_)" d="M95.944,81.052c-4.005,2.071-8.563,0.831-10.083-0.83
					C85.17,78.979,92.353,73.868,95.944,81.052z"/>
				
					<linearGradient id="SVGID_45_" gradientUnits="userSpaceOnUse" x1="9674.543" y1="81.8926" x2="9687.5713" y2="84.0461" gradientTransform="matrix(-1 0 0 1 9769.9316 0)">
					<stop  offset="0" style="stop-color:#884A25"/>
					<stop  offset="1" style="stop-color:#EEC087"/>
				</linearGradient>
				<path fill="url(#SVGID_45_)" d="M96.358,81.527c0.846,5.961-6.999,0.634-11.066,3.473
					C87.917,80.293,90.451,78.818,96.358,81.527z"/>
			</g>
			<linearGradient id="SVGID_46_" gradientUnits="userSpaceOnUse" x1="96.2666" y1="70.7031" x2="97.8335" y2="70.7031">
				<stop  offset="0" style="stop-color:#A37B58"/>
				<stop  offset="1" style="stop-color:#EEC087"/>
			</linearGradient>
			<path opacity="0.44" fill="url(#SVGID_46_)" d="M97.653,79.308c-1.292-4.011,0.777-17.463,0-17.204
				C97.137,70.642,94.809,73.876,97.653,79.308z"/>
		</g>
		<g>
			<g>
				<path fill="#5E5E61" d="M120.073,84.474V56.675h-8.39v-6.326h23.2v6.326h-8.389v27.799H120.073z"/>
				<path fill="#5E5E61" d="M153.655,84.474V72.731c0-2.587-2.06-4.601-4.652-4.601c-2.488,0-4.648,2.059-4.648,4.601v11.742h-5.99
					v-34.05h5.99v13.682c1.489-1.487,3.069-2.012,4.648-2.012c2.879,0,5.563,1.103,7.575,3.064c2.015,2.063,3.115,4.744,3.115,7.573
					v11.742H153.655z"/>
				<path fill="#5E5E61" d="M166.819,81.601c-2.154-2.209-3.356-5.083-3.356-8.103c0-3.021,1.202-5.896,3.356-8.098
					c2.155-2.157,5.034-3.307,8.101-3.307c2.014,0,3.835,0.714,5.414,2.155l0.242,0.189v-1.917h5.799v21.952h-5.799v-1.727
					l-0.242,0.243c-1.723,1.68-3.689,1.917-5.414,1.917C171.9,84.907,169.024,83.756,166.819,81.601z M169.266,73.498
					c0,3.165,2.588,5.802,5.654,5.802c3.069,0,5.656-2.637,5.656-5.802c0-3.113-2.587-5.797-5.656-5.797
					C171.854,67.701,169.266,70.385,169.266,73.498z"/>
				<path fill="#5E5E61" d="M207.593,84.474V72.731c0-2.587-2.062-4.601-4.648-4.601c-2.494,0-4.653,2.059-4.653,4.601v11.742h-5.99
					V62.521h5.99v1.584c1.487-1.487,3.068-2.012,4.653-2.012c2.873,0,5.558,1.103,7.574,3.064c2.011,2.063,3.113,4.744,3.113,7.573
					v11.742H207.593z"/>
				<path fill="#5E5E61" d="M220.422,81.646c-2.157-2.255-3.358-5.176-3.358-8.148c0-3.021,1.201-5.94,3.358-8.147
					c2.204-2.107,5.078-3.307,8.145-3.307c3.162,0,6.042,1.199,8.104,3.307c2.203,2.207,3.401,5.081,3.401,8.147
					s-1.198,5.944-3.401,8.148c-2.158,2.158-5.034,3.354-8.104,3.354C225.596,85,222.674,83.805,220.422,81.646z M222.723,73.498
					c0,3.306,2.632,5.992,5.844,5.992c3.262,0,5.896-2.687,5.896-5.992c0-3.309-2.634-5.99-5.896-5.99
					C225.354,67.508,222.723,70.189,222.723,73.498z"/>
				<path fill="#5E5E61" d="M250.314,84.428c-2.396-0.479-4.648-1.535-6.426-3.119l-0.716-0.572l3.593-3.977l0.672,0.62
					c2.111,1.774,3.833,2.11,4.938,2.11c0.812,0,1.391-0.099,1.964-0.386c0.719-0.286,1.052-0.763,1.052-1.436
					c0-0.575-0.333-1.292-3.159-1.774c-2.591-0.526-4.219-1.053-4.985-1.484c-1.008-0.573-1.823-1.343-2.396-2.303
					c-0.579-0.957-0.865-2.01-0.865-3.211c0-1.247,0.386-2.443,1.152-3.546c0.622-0.912,1.534-1.628,2.876-2.301
					c1.102-0.528,2.348-0.768,3.836-0.768c0.526,0,1.052,0.049,1.534,0.099c2.106,0.336,4.215,1.246,5.94,2.587l0.722,0.576
					l-3.405,3.932l-0.67-0.531c-1.678-1.343-3.116-1.582-3.979-1.582c-0.623,0-1.201,0.1-1.728,0.339
					c-0.623,0.333-0.956,0.861-0.956,1.195c0,0.671,0.479,1.152,2.97,1.728c3.26,0.766,4.315,1.151,4.984,1.436
					c1.342,0.769,1.918,1.392,2.399,2.015c0.715,1.006,1.053,2.254,1.053,3.595c0,1.391-0.383,2.635-1.103,3.64
					c-0.718,1.009-1.68,1.871-3.068,2.541c-1.103,0.528-2.541,0.82-3.979,0.82C251.896,84.67,251.174,84.571,250.314,84.428z"/>
			</g>
		</g>
	</g>
</g>
<g id="Layer_2">
	<g>
		<g>
			<g>
				<g>
					<g>
						<path fill="#5E5E61" d="M136.382,83.654c-2.044-0.883-3.9-2.137-5.479-3.715c-1.625-1.578-2.878-3.435-3.714-5.524
							c-0.929-2.136-1.393-4.364-1.393-6.731c0-9.518,7.799-17.271,17.316-17.271c2.692,0,5.386,0.65,7.754,1.857
							c2.367,1.161,4.503,2.971,6.081,5.107l0.742,0.928l-4.967,3.668l-0.697-0.929c-2.088-2.832-5.338-4.457-8.913-4.457
							c-6.127,0-11.142,4.968-11.142,11.097c0,6.174,5.015,11.188,11.142,11.188c3.529,0,6.779-1.625,8.913-4.457l0.697-0.883
							l4.921,3.622l-0.742,0.928c-1.624,2.183-3.668,3.9-6.081,5.107c-2.368,1.207-5.016,1.811-7.708,1.811
							C140.791,85,138.517,84.536,136.382,83.654z"/>
						<path fill="#5E5E61" d="M162.429,84.769V63.505h5.849v1.718c1.671-1.671,4.178-2.229,5.85-2.229h1.394l-1.394,5.803h-0.883
							c-2.739,0-4.967,2.136-4.967,4.689v11.282H162.429z"/>
						<path fill="#5E5E61" d="M180.071,81.75c-2.09-2.182-3.25-5.014-3.25-7.893c0-2.925,1.16-5.757,3.25-7.893
							c2.135-2.042,4.921-3.203,7.893-3.203c3.063,0,5.849,1.161,7.845,3.203c2.136,2.136,3.297,4.922,3.297,7.893
							c0,2.972-1.161,5.758-3.297,7.893c-2.089,2.09-4.874,3.25-7.845,3.25C185.085,85,182.254,83.84,180.071,81.75z M182.3,73.857
							c0,3.204,2.553,5.804,5.664,5.804c3.155,0,5.71-2.6,5.71-5.804c0-3.203-2.555-5.803-5.71-5.803
							C184.853,68.055,182.3,70.654,182.3,73.857z"/>
						<path fill="#5E5E61" d="M217.956,84.769V73.394c0-2.507-1.998-4.457-4.505-4.457c-2.413,0-4.503,1.996-4.503,4.457v11.375
							h-5.803V63.505h5.803v1.532c1.439-1.439,2.972-1.95,4.503-1.95c2.787,0,5.386,1.067,7.336,2.972
							c1.95,1.996,3.018,4.596,3.018,7.335v11.375H217.956z"/>
						<path fill="#5E5E61" d="M230.399,81.75c-2.089-2.182-3.25-5.014-3.25-7.893c0-2.925,1.161-5.757,3.25-7.893
							c2.136-2.042,4.921-3.203,7.893-3.203c3.064,0,5.85,1.161,7.846,3.203c2.137,2.136,3.296,4.922,3.296,7.893
							c0,2.972-1.159,5.758-3.296,7.893c-2.088,2.09-4.875,3.25-7.846,3.25C235.414,85,232.581,83.84,230.399,81.75z
							 M232.628,73.857c0,3.204,2.554,5.804,5.664,5.804c3.157,0,5.71-2.6,5.71-5.804c0-3.203-2.553-5.803-5.71-5.803
							C235.182,68.055,232.628,70.654,232.628,73.857z"/>
						<path fill="#5E5E61" d="M259.37,84.443c-2.32-0.465-4.503-1.486-6.221-3.019l-0.697-0.557l3.482-3.854l0.65,0.604
							c2.042,1.718,3.714,2.042,4.781,2.042c0.791,0,1.348-0.093,1.904-0.371c0.696-0.278,1.021-0.743,1.021-1.393
							c0-0.558-0.324-1.254-3.063-1.718c-2.507-0.511-4.086-1.021-4.829-1.439c-0.975-0.558-1.764-1.3-2.32-2.229
							s-0.837-1.95-0.837-3.11c0-1.208,0.372-2.368,1.115-3.437c0.603-0.882,1.485-1.578,2.785-2.228
							c1.069-0.511,2.274-0.743,3.714-0.743c0.511,0,1.021,0.046,1.485,0.093c2.044,0.324,4.087,1.207,5.759,2.507l0.694,0.558
							l-3.295,3.807l-0.651-0.511c-1.624-1.3-3.017-1.532-3.852-1.532c-0.604,0-1.161,0.094-1.672,0.325
							c-0.604,0.325-0.929,0.835-0.929,1.161c0,0.649,0.464,1.114,2.879,1.671c3.157,0.743,4.178,1.114,4.829,1.393
							c1.299,0.743,1.855,1.347,2.32,1.95c0.696,0.975,1.021,2.182,1.021,3.482c0,1.346-0.371,2.554-1.067,3.527
							c-0.697,0.976-1.626,1.812-2.972,2.461c-1.068,0.511-2.461,0.79-3.854,0.79C260.901,84.676,260.207,84.582,259.37,84.443z"/>
					</g>
				</g>
			</g>
		</g>
		<g>
			
				<linearGradient id="SVGID_47_" gradientUnits="userSpaceOnUse" x1="2906.127" y1="73.1826" x2="2961.8142" y2="34.5643" gradientTransform="matrix(-1 0 0 1 3029.8789 0)">
				<stop  offset="0.0102" style="stop-color:#C9CCC9"/>
				<stop  offset="1" style="stop-color:#3E5060"/>
			</linearGradient>
			<path fill="url(#SVGID_47_)" d="M77.37,49.981c23.537-0.611,31.417-16.336,31.067-16.144c-0.351,0.19-0.675-0.714-1.653-0.476
				c0.064-2.711,3.343-2.76,3.52-4.902c0.177-2.142,4.593-6.088,5.859-6.395c1.372-0.155,4.634-6.799,5.322-7.065
				c5.167,3.146-1.924,7.754-1.198,13.485s4.907,6.736,4.907,6.736s-0.855-0.112-1.851,0.082c0.659,2.303-0.168,15.083-8.122,22.863
				c-7.954,7.78-2.144,25.978-2.144,25.978c-3.056,0.884-1.727,0.352-3.853,0.176c-6.092-16.987-2.557-18.592-5.01-20.583
				c-2.454-1.992-2.454,2.274-12.416,3.308c0.938-2.849,0.879-3.996-0.021-5.502c-3.246,7.669-8.614,9.855-14.185,10.843
				c-7.41,0.881-7.623,9.842-8.678,12.396c-1.932,0.221-2.675,0.284-5.077,0.146c3.358-4.833,4.329-15.33,6.356-16.529
				c0.932-0.551,3.925-1.22,3.711-3.076c-0.215-1.857-0.942-5.205,0.768-9.938c-6.482,13.808-22.547,7.42-22.836,24.551
				C45.639,69.862,51.396,51.214,77.37,49.981z"/>
			
				<linearGradient id="SVGID_48_" gradientUnits="userSpaceOnUse" x1="2902.3652" y1="18.8008" x2="2911.1123" y2="40.3485" gradientTransform="matrix(-1 0 0 1 3029.8789 0)">
				<stop  offset="0.0102" style="stop-color:#C9CCC9"/>
				<stop  offset="1" style="stop-color:#3E5060"/>
			</linearGradient>
			<path fill="url(#SVGID_48_)" d="M124.761,18.79c-6.158,3.965-6.229,14.503,0.721,16.435
				C117.881,29.565,127.712,21.749,124.761,18.79z"/>
			
				<linearGradient id="SVGID_49_" gradientUnits="userSpaceOnUse" x1="2962.6045" y1="78.3535" x2="2951.6118" y2="39.0465" gradientTransform="matrix(-1 0 0 1 3029.8789 0)">
				<stop  offset="0.0102" style="stop-color:#C9CCC9"/>
				<stop  offset="1" style="stop-color:#3E5060"/>
			</linearGradient>
			<path fill="url(#SVGID_49_)" d="M63.839,84.927c3.358-4.833,4.329-15.33,6.356-16.529c0.932-0.551,3.925-1.22,3.711-3.076
				c-0.215-1.857-0.942-5.205,0.768-9.938c-6.482,13.808-22.547,7.42-22.836,24.551c-6.199-10.072-0.442-28.721,25.532-29.953
				c6.539-0.169,11.867-1.506,16.148-3.343l0.349,0.171c0,0,1.855,6.847-2.047,14.805c-0.014-0.023-0.026-0.047-0.041-0.071
				c-0.176,0.418-0.361,0.817-0.55,1.203c-0.956,1.726-2.194,3.489-3.788,5.236c-2.876,2.671-6.32,3.778-9.847,4.403
				c-7.41,0.881-7.623,9.842-8.678,12.396C66.984,85.002,66.241,85.065,63.839,84.927z"/>
			<linearGradient id="SVGID_50_" gradientUnits="userSpaceOnUse" x1="123.2051" y1="19.585" x2="106.5628" y2="57.9902">
				<stop  offset="0.0102" style="stop-color:#C9CCC9"/>
				<stop  offset="0.1425" style="stop-color:#C0C4C2"/>
				<stop  offset="0.3633" style="stop-color:#A6ADAE"/>
				<stop  offset="0.6451" style="stop-color:#7C878F"/>
				<stop  offset="0.9742" style="stop-color:#435464"/>
				<stop  offset="1" style="stop-color:#3E5060"/>
			</linearGradient>
			<path fill="url(#SVGID_50_)" d="M125.194,35.222c0,0-4.182-1.005-4.907-6.736s6.365-10.339,1.198-13.485
				c-0.688,0.267-3.951,6.91-5.322,7.065c-1.266,0.307-5.683,4.253-5.859,6.395c-0.176,2.143-3.456,2.191-3.52,4.902
				c0.617-0.151,0.975,0.155,1.243,0.352c0.136,0.042,0.269,0.08,0.411,0.124c0.021-0.013,0.034-0.008,0.038,0.012
				c2.484,0.703,4.148,2.238,5.239,4.22c0.648,2.601,1.263,6.75,0.371,11.164c0.453-0.965,0.952-1.604,1.442-2.031
				c-0.077,6.493-2.031,12.836-2.031,12.836s0.113-0.068,0.319-0.191c0.413-0.6,0.878-1.163,1.406-1.68
				c7.954-7.78,8.78-20.561,8.122-22.863C124.339,35.109,125.194,35.222,125.194,35.222z"/>
		</g>
	</g>
</g>
</svg>
